<?xml version="1.0" encoding="UTF-8" standalone="no"?>
<!DOCTYPE svg PUBLIC "-//W3C//DTD SVG 1.1//EN" "http://www.w3.org/Graphics/SVG/1.1/DTD/svg11.dtd">
<svg width="40" height="40" viewBox="0 0 40 40" version="1.1" xmlns="http://www.w3.org/2000/svg" xmlns:xlink="http://www.w3.org/1999/xlink" xml:space="preserve" xmlns:serif="http://www.serif.com/" style="fill-rule:evenodd;clip-rule:evenodd;stroke-linejoin:round;stroke-miterlimit:2;">
    <g transform="matrix(0.0801492,0,0,0.0801492,0.682976,0.0263105)">
        <g>
            <g transform="matrix(0.1,0,0,-0.1,0,500)">
                <path d="M784,3795C709,3779 671,3760 619,3713C536,3638 500,3532 500,3360C500,3235 521,3144 572,3040C595,2993 616,2951 618,2946C621,2941 548,2941 452,2945C288,2952 279,2951 235,2930C110,2870 64,2675 137,2518C191,2403 256,2348 381,2308C444,2288 476,2285 595,2285C750,2286 815,2301 914,2362C973,2398 965,2401 1126,2286C1286,2172 1359,2104 1415,2020C1473,1933 1496,1869 1515,1738C1551,1491 1619,1379 1777,1303C1983,1204 2204,1256 2284,1423C2318,1493 2332,1610 2333,1815C2333,2076 2299,2174 2157,2314C2083,2387 2078,2395 2091,2414C2207,2596 2241,2680 2247,2805C2254,2923 2231,2988 2157,3064C2094,3128 2037,3150 1935,3150C1875,3150 1853,3145 1802,3119C1699,3068 1613,2951 1569,2803C1563,2779 1553,2760 1549,2760C1539,2760 1432,2884 1391,2944C1316,3053 1281,3177 1280,3340C1279,3599 1173,3751 963,3795C882,3812 864,3812 784,3795ZM967,3556C1032,3523 1055,3480 1070,3370C1113,3049 1147,2972 1320,2800C1477,2642 1570,2560 1590,2560C1620,2560 1638,2584 1677,2675C1755,2856 1826,2933 1914,2933C1941,2933 1971,2925 1993,2911C2086,2854 2080,2700 1974,2442C1955,2397 1940,2351 1940,2340C1940,2330 1958,2300 1980,2275C2049,2196 2085,2105 2163,1820C2208,1656 2204,1581 2145,1512C2100,1460 2064,1446 1990,1453C1877,1463 1774,1544 1744,1647C1736,1676 1718,1752 1705,1815C1671,1977 1631,2057 1528,2165C1439,2260 1310,2350 1105,2464C968,2541 951,2543 825,2496C709,2453 553,2467 423,2530C350,2566 315,2613 315,2676C315,2733 332,2750 389,2750C454,2750 624,2794 695,2829C803,2882 822,2916 774,2967C718,3026 670,3174 670,3286C670,3361 691,3464 715,3510C753,3583 873,3605 967,3556Z" style="fill:rgb(24,24,24);fill-rule:nonzero;"/>
            </g>
            <g transform="matrix(-0.1,0,0,-0.1,482.027,504.485)">
                <path d="M784,3795C709,3779 671,3760 619,3713C536,3638 500,3532 500,3360C500,3235 521,3144 572,3040C595,2993 616,2951 618,2946C621,2941 548,2941 452,2945C288,2952 279,2951 235,2930C110,2870 64,2675 137,2518C191,2403 256,2348 381,2308C444,2288 476,2285 595,2285C750,2286 815,2301 914,2362C973,2398 965,2401 1126,2286C1286,2172 1359,2104 1415,2020C1473,1933 1496,1869 1515,1738C1551,1491 1619,1379 1777,1303C1983,1204 2204,1256 2284,1423C2318,1493 2332,1610 2333,1815C2333,2076 2299,2174 2157,2314C2083,2387 2078,2395 2091,2414C2207,2596 2241,2680 2247,2805C2254,2923 2231,2988 2157,3064C2094,3128 2037,3150 1935,3150C1875,3150 1853,3145 1802,3119C1699,3068 1613,2951 1569,2803C1563,2779 1553,2760 1549,2760C1539,2760 1432,2884 1391,2944C1316,3053 1281,3177 1280,3340C1279,3599 1173,3751 963,3795C882,3812 864,3812 784,3795ZM967,3556C1032,3523 1055,3480 1070,3370C1113,3049 1147,2972 1320,2800C1477,2642 1570,2560 1590,2560C1620,2560 1638,2584 1677,2675C1755,2856 1826,2933 1914,2933C1941,2933 1971,2925 1993,2911C2086,2854 2080,2700 1974,2442C1955,2397 1940,2351 1940,2340C1940,2330 1958,2300 1980,2275C2049,2196 2085,2105 2163,1820C2208,1656 2204,1581 2145,1512C2100,1460 2064,1446 1990,1453C1877,1463 1774,1544 1744,1647C1736,1676 1718,1752 1705,1815C1671,1977 1631,2057 1528,2165C1439,2260 1310,2350 1105,2464C968,2541 951,2543 825,2496C709,2453 553,2467 423,2530C350,2566 315,2613 315,2676C315,2733 332,2750 389,2750C454,2750 624,2794 695,2829C803,2882 822,2916 774,2967C718,3026 670,3174 670,3286C670,3361 691,3464 715,3510C753,3583 873,3605 967,3556Z" style="fill:rgb(24,24,24);fill-rule:nonzero;"/>
            </g>
        </g>
    </g>
</svg>
