<svg width="40" height="40" viewBox="0 0 1052 1050" fill="none" xmlns="http://www.w3.org/2000/svg">
<rect x="740" y="115.962" width="223" height="58" rx="20" fill="#00E2FD" fill-opacity="0.15" stroke="#019299" stroke-width="8" stroke-dasharray="16 16"/>
<rect x="260" y="291.962" width="147" height="58" rx="20" fill="#00E2FD" fill-opacity="0.15" stroke="#019299" stroke-width="8" stroke-dasharray="16 16"/>
<rect x="705" y="291.962" width="247" height="58" rx="20" fill="#00E2FD" fill-opacity="0.15" stroke="#019299" stroke-width="8" stroke-dasharray="16 16"/>
<rect x="342" y="467.962" width="133" height="58" rx="20" fill="#00E2FD" fill-opacity="0.15" stroke="#019299" stroke-width="8" stroke-dasharray="16 16"/>
<rect x="342" y="643.962" width="243" height="58" rx="20" fill="#00E2FD" fill-opacity="0.15" stroke="#019299" stroke-width="8" stroke-dasharray="16 16"/>
<rect x="342" y="819.962" width="176" height="58" rx="20" fill="#00E2FD" fill-opacity="0.15" stroke="#019299" stroke-width="8" stroke-dasharray="16 16"/>
<path d="M964.5 321.962C1017 323.962 1083.5 275.462 1023.5 196.462" stroke="#019299" stroke-width="8" stroke-miterlimit="1.09464" stroke-linecap="round" stroke-dasharray="16 16"/>
<path d="M262.5 449.462C232.5 418.962 233.5 376.962 257.5 355.962" stroke="#019299" stroke-width="8" stroke-miterlimit="1.09464" stroke-linecap="round" stroke-dasharray="16 16"/>
<path d="M676.5 794.962C712.5 735.462 668.5 672.962 597 672.962" stroke="#019299" stroke-width="8" stroke-miterlimit="1.09464" stroke-linecap="round" stroke-dasharray="16 16"/>
<mask id="path-10-inside-1_20_203" fill="white">
<path d="M406 903.961C419.255 903.961 430 914.707 430 927.961V945.961C430 959.216 419.255 969.961 406 969.961H362C348.745 969.961 338 959.216 338 945.961V927.961C338 914.707 348.745 903.961 362 903.961H406ZM565 903.961C578.255 903.961 589 914.707 589 927.961V945.961C589 959.216 578.255 969.961 565 969.961H474C460.745 969.961 450 959.216 450 945.961V927.961C450 914.707 460.745 903.961 474 903.961H565ZM647.292 789.918C660.365 787.733 672.735 796.56 674.92 809.633L677.888 827.387C680.073 840.46 671.246 852.83 658.173 855.015L460.553 888.047C447.479 890.232 435.109 881.406 432.924 868.332L429.957 850.578C427.772 837.505 436.598 825.136 449.672 822.951L647.292 789.918ZM429 727.961C442.255 727.961 453 738.707 453 751.961V769.961C453 783.216 442.255 793.961 429 793.961H362C348.745 793.961 338 783.216 338 769.961V751.961C338 738.707 348.745 727.961 362 727.961H429ZM565 727.961C578.255 727.961 589 738.707 589 751.961V769.961C589 783.216 578.255 793.961 565 793.961H497C483.745 793.961 473 783.216 473 769.961V751.961C473 738.707 483.745 727.961 497 727.961H565ZM382 551.961C395.255 551.961 406 562.707 406 575.961V593.961C406 607.216 395.255 617.961 382 617.961H362C348.745 617.961 338 607.216 338 593.961V575.961C338 562.707 348.745 551.961 362 551.961H382ZM565 551.961C578.255 551.961 589 562.707 589 575.961V593.961C589 607.216 578.255 617.961 565 617.961H450C436.745 617.961 426 607.216 426 593.961V575.961C426 562.707 436.745 551.961 450 551.961H565ZM272.892 449.642C277.367 437.166 291.109 430.679 303.585 435.154L399.771 469.653C412.248 474.128 418.735 487.87 414.26 500.346L408.183 517.289C403.708 529.766 389.966 536.253 377.489 531.778L281.303 497.279C268.826 492.804 262.339 479.061 266.814 466.584L272.892 449.642ZM565 463.961C578.255 463.961 589 474.707 589 487.961V505.961C589 519.216 578.255 529.961 565 529.961H523C509.745 529.961 499 519.216 499 505.961V487.961C499 474.707 509.745 463.961 523 463.961H565ZM565 375.961C578.255 375.961 589 386.707 589 399.961V417.961C589 431.216 578.255 441.961 565 441.961H362C348.745 441.961 338 431.216 338 417.961V399.961C338 386.707 348.745 375.961 362 375.961H565ZM212 287.961C225.255 287.961 236 298.707 236 311.961V329.961C236 343.216 225.255 353.961 212 353.961H24C10.7452 353.961 0 343.216 0 329.961V311.961C0.000198306 298.707 10.7453 287.961 24 287.961H212ZM657 287.961C670.255 287.961 681 298.707 681 311.961V329.961C681 343.216 670.255 353.961 657 353.961H455C441.745 353.961 431 343.216 431 329.961V311.961C431 298.707 441.745 287.961 455 287.961H657ZM294 199.961C307.255 199.961 318 210.707 318 223.961V241.961C318 255.216 307.255 265.961 294 265.961H134C120.745 265.961 110 255.216 110 241.961V223.961C110 210.707 120.745 199.961 134 199.961H294ZM565 199.961C578.255 199.961 589 210.707 589 223.961V241.961C589 255.216 578.255 265.961 565 265.961H362C348.745 265.961 338 255.216 338 241.961V223.961C338 210.707 348.745 199.961 362 199.961H565ZM877 199.961C890.255 199.961 901 210.707 901 223.961V241.961C901 255.216 890.255 265.961 877 265.961H633C619.745 265.961 609 255.216 609 241.961V223.961C609 210.707 619.745 199.961 633 199.961H877ZM843.159 95.3431C847.944 82.9821 861.843 76.8402 874.204 81.6243L1013.89 135.687C1026.25 140.471 1032.39 154.371 1027.61 166.732L1021.11 183.518C1016.33 195.879 1002.43 202.022 990.068 197.238L850.382 143.175C838.021 138.391 831.878 124.491 836.662 112.13L843.159 95.3431ZM232 111.961C245.255 111.961 256 122.707 256 135.961V153.961C256 167.216 245.255 177.961 232 177.961H44C30.7452 177.961 20 167.216 20 153.961V135.961C20.0002 122.707 30.7453 111.961 44 111.961H232ZM457 111.961C470.255 111.961 481 122.707 481 135.961V153.961C481 167.216 470.255 177.961 457 177.961H300C286.745 177.961 276 167.216 276 153.961V135.961C276 122.707 286.745 111.961 300 111.961H457ZM692 111.961C705.255 111.961 716 122.707 716 135.961V153.961C716 167.216 705.255 177.961 692 177.961H525C511.745 177.961 501 167.216 501 153.961V135.961C501 122.707 511.745 111.961 525 111.961H692Z"/>
</mask>
<path d="M406 903.961C419.255 903.961 430 914.707 430 927.961V945.961C430 959.216 419.255 969.961 406 969.961H362C348.745 969.961 338 959.216 338 945.961V927.961C338 914.707 348.745 903.961 362 903.961H406ZM565 903.961C578.255 903.961 589 914.707 589 927.961V945.961C589 959.216 578.255 969.961 565 969.961H474C460.745 969.961 450 959.216 450 945.961V927.961C450 914.707 460.745 903.961 474 903.961H565ZM647.292 789.918C660.365 787.733 672.735 796.56 674.92 809.633L677.888 827.387C680.073 840.46 671.246 852.83 658.173 855.015L460.553 888.047C447.479 890.232 435.109 881.406 432.924 868.332L429.957 850.578C427.772 837.505 436.598 825.136 449.672 822.951L647.292 789.918ZM429 727.961C442.255 727.961 453 738.707 453 751.961V769.961C453 783.216 442.255 793.961 429 793.961H362C348.745 793.961 338 783.216 338 769.961V751.961C338 738.707 348.745 727.961 362 727.961H429ZM565 727.961C578.255 727.961 589 738.707 589 751.961V769.961C589 783.216 578.255 793.961 565 793.961H497C483.745 793.961 473 783.216 473 769.961V751.961C473 738.707 483.745 727.961 497 727.961H565ZM382 551.961C395.255 551.961 406 562.707 406 575.961V593.961C406 607.216 395.255 617.961 382 617.961H362C348.745 617.961 338 607.216 338 593.961V575.961C338 562.707 348.745 551.961 362 551.961H382ZM565 551.961C578.255 551.961 589 562.707 589 575.961V593.961C589 607.216 578.255 617.961 565 617.961H450C436.745 617.961 426 607.216 426 593.961V575.961C426 562.707 436.745 551.961 450 551.961H565ZM272.892 449.642C277.367 437.166 291.109 430.679 303.585 435.154L399.771 469.653C412.248 474.128 418.735 487.87 414.26 500.346L408.183 517.289C403.708 529.766 389.966 536.253 377.489 531.778L281.303 497.279C268.826 492.804 262.339 479.061 266.814 466.584L272.892 449.642ZM565 463.961C578.255 463.961 589 474.707 589 487.961V505.961C589 519.216 578.255 529.961 565 529.961H523C509.745 529.961 499 519.216 499 505.961V487.961C499 474.707 509.745 463.961 523 463.961H565ZM565 375.961C578.255 375.961 589 386.707 589 399.961V417.961C589 431.216 578.255 441.961 565 441.961H362C348.745 441.961 338 431.216 338 417.961V399.961C338 386.707 348.745 375.961 362 375.961H565ZM212 287.961C225.255 287.961 236 298.707 236 311.961V329.961C236 343.216 225.255 353.961 212 353.961H24C10.7452 353.961 0 343.216 0 329.961V311.961C0.000198306 298.707 10.7453 287.961 24 287.961H212ZM657 287.961C670.255 287.961 681 298.707 681 311.961V329.961C681 343.216 670.255 353.961 657 353.961H455C441.745 353.961 431 343.216 431 329.961V311.961C431 298.707 441.745 287.961 455 287.961H657ZM294 199.961C307.255 199.961 318 210.707 318 223.961V241.961C318 255.216 307.255 265.961 294 265.961H134C120.745 265.961 110 255.216 110 241.961V223.961C110 210.707 120.745 199.961 134 199.961H294ZM565 199.961C578.255 199.961 589 210.707 589 223.961V241.961C589 255.216 578.255 265.961 565 265.961H362C348.745 265.961 338 255.216 338 241.961V223.961C338 210.707 348.745 199.961 362 199.961H565ZM877 199.961C890.255 199.961 901 210.707 901 223.961V241.961C901 255.216 890.255 265.961 877 265.961H633C619.745 265.961 609 255.216 609 241.961V223.961C609 210.707 619.745 199.961 633 199.961H877ZM843.159 95.3431C847.944 82.9821 861.843 76.8402 874.204 81.6243L1013.89 135.687C1026.25 140.471 1032.39 154.371 1027.61 166.732L1021.11 183.518C1016.33 195.879 1002.43 202.022 990.068 197.238L850.382 143.175C838.021 138.391 831.878 124.491 836.662 112.13L843.159 95.3431ZM232 111.961C245.255 111.961 256 122.707 256 135.961V153.961C256 167.216 245.255 177.961 232 177.961H44C30.7452 177.961 20 167.216 20 153.961V135.961C20.0002 122.707 30.7453 111.961 44 111.961H232ZM457 111.961C470.255 111.961 481 122.707 481 135.961V153.961C481 167.216 470.255 177.961 457 177.961H300C286.745 177.961 276 167.216 276 153.961V135.961C276 122.707 286.745 111.961 300 111.961H457ZM692 111.961C705.255 111.961 716 122.707 716 135.961V153.961C716 167.216 705.255 177.961 692 177.961H525C511.745 177.961 501 167.216 501 153.961V135.961C501 122.707 511.745 111.961 525 111.961H692Z" fill="url(#paint0_linear_20_203)"/>
<path fill-rule="evenodd" clip-rule="evenodd" d="M430 927.961H432V927.961H430ZM338 927.961H336V927.961H338ZM565 903.961V901.961V901.961V903.961ZM589 927.961H591V927.961H589ZM565 969.961V971.961V969.961ZM474 969.961V971.961V971.961V969.961ZM450 927.961H448V927.961H450ZM474 903.961V901.961V903.961ZM647.292 789.918L646.962 787.946V787.946L647.292 789.918ZM674.92 809.633L672.947 809.963V809.963L674.92 809.633ZM677.888 827.387L679.86 827.057V827.057L677.888 827.387ZM658.173 855.015L658.503 856.988V856.988L658.173 855.015ZM460.553 888.047L460.882 890.02V890.02L460.553 888.047ZM432.924 868.332L430.951 868.662L430.951 868.662L432.924 868.332ZM429.957 850.578L431.93 850.249L431.93 850.249L429.957 850.578ZM449.672 822.951L450.002 824.923V824.923L449.672 822.951ZM453 751.961H455V751.961H453ZM338 751.961H336V751.961H338ZM589 751.961H591V751.961H589ZM473 751.961H471V751.961H473ZM406 575.961H408V575.961L406 575.961ZM382 617.961V619.961V619.961V617.961ZM338 575.961L336 575.961V575.961H338ZM362 551.961V549.961V549.961V551.961ZM565 551.961V549.961V549.961V551.961ZM589 575.961H591V575.961L589 575.961ZM565 617.961V619.961V619.961V617.961ZM450 617.961V619.961V619.961V617.961ZM426 575.961L424 575.961V575.961H426ZM450 551.961V549.961V549.961V551.961ZM272.892 449.642L274.774 450.317V450.317L272.892 449.642ZM303.585 435.154L304.26 433.271H304.26L303.585 435.154ZM399.771 469.653L400.447 467.77V467.77L399.771 469.653ZM414.26 500.346L416.142 501.021V501.021L414.26 500.346ZM408.183 517.289L410.065 517.965V517.965L408.183 517.289ZM377.489 531.778L378.164 529.895V529.895L377.489 531.778ZM281.303 497.279L280.628 499.161V499.161L281.303 497.279ZM266.814 466.584L264.932 465.909V465.909L266.814 466.584ZM589 487.961H591V487.961L589 487.961ZM565 529.961V531.961V531.961V529.961ZM499 487.961L497 487.961V487.961H499ZM523 463.961V461.961V461.961V463.961ZM565 375.961V373.961V373.961V375.961ZM589 399.961H591V399.961L589 399.961ZM565 441.961V443.961V443.961V441.961ZM362 441.961V443.961V443.961V441.961ZM338 399.961L336 399.961V399.961H338ZM362 375.961V373.961V373.961V375.961ZM212 287.961V285.961V285.961V287.961ZM236 311.961H238V311.961L236 311.961ZM24 353.961V355.961V355.961V353.961ZM0 311.961L-2 311.961V311.961H0ZM657 287.961V285.961V285.961V287.961ZM681 311.961H683V311.961L681 311.961ZM657 353.961V355.961V353.961ZM455 353.961V355.961V355.961V353.961ZM431 311.961L429 311.961V311.961H431ZM455 287.961V285.961V287.961ZM294 199.961V197.961V197.961V199.961ZM318 223.961H320V223.961L318 223.961ZM294 265.961V267.961V265.961ZM134 265.961V267.961V267.961V265.961ZM110 223.961L108 223.961V223.961H110ZM134 199.961V197.961V199.961ZM565 199.961V197.961V197.961V199.961ZM589 223.961H591V223.961L589 223.961ZM565 265.961V267.961V267.961V265.961ZM362 265.961V267.961V267.961V265.961ZM338 223.961L336 223.961V223.961H338ZM362 199.961V197.961V197.961V199.961ZM901 223.961H903V223.961L901 223.961ZM609 223.961L607 223.961V223.961H609ZM843.159 95.3431L841.294 94.6212V94.6212L843.159 95.3431ZM874.204 81.6244L873.482 83.4895V83.4895L874.204 81.6244ZM1013.89 135.687L1014.61 133.822L1014.61 133.822L1013.89 135.687ZM1027.61 166.732L1029.48 167.454L1029.48 167.454L1027.61 166.732ZM1021.11 183.518L1019.25 182.796V182.796L1021.11 183.518ZM990.068 197.238L990.79 195.372V195.372L990.068 197.238ZM850.382 143.175L849.66 145.04L849.66 145.04L850.382 143.175ZM836.662 112.13L834.797 111.408V111.408L836.662 112.13ZM232 111.961V109.961V109.961V111.961ZM256 135.961H258V135.961L256 135.961ZM44 177.961V179.961V179.961V177.961ZM20 135.961L18 135.961V135.961H20ZM457 111.961V109.961V109.961V111.961ZM481 135.961H483V135.961L481 135.961ZM457 177.961V179.961V177.961ZM300 177.961V179.961V179.961V177.961ZM276 135.961L274 135.961V135.961H276ZM300 111.961V109.961V111.961ZM692 111.961V109.961V109.961V111.961ZM716 135.961H718V135.961L716 135.961ZM525 177.961V179.961V179.961V177.961ZM501 135.961L499 135.961V135.961H501ZM406 903.961V905.961C418.15 905.961 428 915.811 428 927.961H430H432C432 913.602 420.359 901.961 406 901.961V903.961ZM430 927.961H428V945.961H430H432V927.961H430ZM430 945.961H428C428 958.112 418.15 967.961 406 967.961V969.961V971.961C420.359 971.961 432 960.321 432 945.961H430ZM406 969.961V967.961H362V969.961V971.961H406V969.961ZM362 969.961V967.961C349.85 967.961 340 958.112 340 945.961H338H336C336 960.321 347.641 971.961 362 971.961V969.961ZM338 945.961H340V927.961H338H336V945.961H338ZM338 927.961H340C340 915.811 349.85 905.961 362 905.961V903.961V901.961C347.641 901.961 336 913.602 336 927.961H338ZM362 903.961V905.961H406V903.961V901.961H362V903.961ZM565 903.961V905.961C577.15 905.961 587 915.811 587 927.961H589H591C591 913.602 579.359 901.961 565 901.961V903.961ZM589 927.961H587V945.961H589H591V927.961H589ZM589 945.961H587C587 958.112 577.15 967.961 565 967.961V969.961V971.961C579.359 971.961 591 960.321 591 945.961H589ZM565 969.961V967.961H474V969.961V971.961H565V969.961ZM474 969.961V967.961C461.85 967.961 452 958.112 452 945.961H450H448C448 960.321 459.641 971.961 474 971.961V969.961ZM450 945.961H452V927.961H450H448V945.961H450ZM450 927.961H452C452 915.811 461.85 905.961 474 905.961V903.961V901.961C459.641 901.961 448 913.602 448 927.961H450ZM474 903.961V905.961H565V903.961V901.961H474V903.961ZM647.292 789.918L647.622 791.891C659.606 789.888 670.944 797.979 672.947 809.963L674.92 809.633L676.893 809.303C674.525 795.141 661.125 785.578 646.962 787.946L647.292 789.918ZM674.92 809.633L672.947 809.963L675.915 827.717L677.888 827.387L679.86 827.057L676.893 809.303L674.92 809.633ZM677.888 827.387L675.915 827.717C677.918 839.701 669.827 851.039 657.843 853.042L658.173 855.015L658.503 856.988C672.665 854.62 682.227 841.22 679.86 827.057L677.888 827.387ZM658.173 855.015L657.843 853.042L460.223 886.075L460.553 888.047L460.882 890.02L658.503 856.988L658.173 855.015ZM460.553 888.047L460.223 886.075C448.239 888.078 436.9 879.987 434.896 868.003L432.924 868.332L430.951 868.662C433.319 882.825 446.72 892.387 460.882 890.02L460.553 888.047ZM432.924 868.332L434.896 868.003L431.93 850.249L429.957 850.578L427.984 850.908L430.951 868.662L432.924 868.332ZM429.957 850.578L431.93 850.249C429.927 838.265 438.018 826.926 450.002 824.923L449.672 822.951L449.342 820.978C435.179 823.345 425.617 836.745 427.984 850.908L429.957 850.578ZM449.672 822.951L450.002 824.923L647.622 791.891L647.292 789.918L646.962 787.946L449.342 820.978L449.672 822.951ZM429 727.961V729.961C441.15 729.961 451 739.811 451 751.961H453H455C455 737.602 443.359 725.961 429 725.961V727.961ZM453 751.961H451V769.961H453H455V751.961H453ZM453 769.961H451C451 782.112 441.15 791.961 429 791.961V793.961V795.961C443.359 795.961 455 784.321 455 769.961H453ZM429 793.961V791.961H362V793.961V795.961H429V793.961ZM362 793.961V791.961C349.85 791.961 340 782.112 340 769.961H338H336C336 784.321 347.641 795.961 362 795.961V793.961ZM338 769.961H340V751.961H338H336V769.961H338ZM338 751.961H340C340 739.811 349.85 729.961 362 729.961V727.961V725.961C347.641 725.961 336 737.602 336 751.961H338ZM362 727.961V729.961H429V727.961V725.961H362V727.961ZM565 727.961V729.961C577.15 729.961 587 739.811 587 751.961H589H591C591 737.602 579.359 725.961 565 725.961V727.961ZM589 751.961H587V769.961H589H591V751.961H589ZM589 769.961H587C587 782.112 577.15 791.961 565 791.961V793.961V795.961C579.359 795.961 591 784.321 591 769.961H589ZM565 793.961V791.961H497V793.961V795.961H565V793.961ZM497 793.961V791.961C484.85 791.961 475 782.112 475 769.961H473H471C471 784.321 482.641 795.961 497 795.961V793.961ZM473 769.961H475V751.961H473H471V769.961H473ZM473 751.961H475C475 739.811 484.85 729.961 497 729.961V727.961V725.961C482.641 725.961 471 737.602 471 751.961H473ZM497 727.961V729.961H565V727.961V725.961H497V727.961ZM382 551.961V553.961C394.15 553.961 404 563.811 404 575.961L406 575.961L408 575.961C408 561.602 396.359 549.961 382 549.961V551.961ZM406 575.961H404V593.961H406H408V575.961H406ZM406 593.961H404C404 606.112 394.15 615.961 382 615.961V617.961V619.961C396.359 619.961 408 608.321 408 593.961H406ZM382 617.961V615.961H362V617.961V619.961H382V617.961ZM362 617.961V615.961C349.85 615.961 340 606.112 340 593.961H338H336C336 608.321 347.641 619.961 362 619.961V617.961ZM338 593.961H340V575.961H338H336V593.961H338ZM338 575.961L340 575.961C340 563.811 349.85 553.961 362 553.961V551.961V549.961C347.641 549.961 336 561.602 336 575.961L338 575.961ZM362 551.961V553.961H382V551.961V549.961H362V551.961ZM565 551.961V553.961C577.15 553.961 587 563.811 587 575.961L589 575.961L591 575.961C591 561.602 579.359 549.961 565 549.961V551.961ZM589 575.961H587V593.961H589H591V575.961H589ZM589 593.961H587C587 606.112 577.15 615.961 565 615.961V617.961V619.961C579.359 619.961 591 608.321 591 593.961H589ZM565 617.961V615.961H450V617.961V619.961H565V617.961ZM450 617.961V615.961C437.85 615.961 428 606.112 428 593.961H426H424C424 608.321 435.641 619.961 450 619.961V617.961ZM426 593.961H428V575.961H426H424V593.961H426ZM426 575.961L428 575.961C428 563.811 437.85 553.961 450 553.961V551.961V549.961C435.641 549.961 424 561.602 424 575.961L426 575.961ZM450 551.961V553.961H565V551.961V549.961H450V551.961ZM272.892 449.642L274.774 450.317C278.876 438.88 291.473 432.934 302.91 437.036L303.585 435.154L304.26 433.271C290.744 428.423 275.857 435.451 271.009 448.967L272.892 449.642ZM303.585 435.154L302.91 437.036L399.096 471.535L399.771 469.653L400.447 467.77L304.26 433.271L303.585 435.154ZM399.771 469.653L399.096 471.535C410.533 475.637 416.479 488.234 412.377 499.671L414.26 500.346L416.142 501.021C420.99 487.505 413.963 472.618 400.447 467.77L399.771 469.653ZM414.26 500.346L412.377 499.671L406.3 516.614L408.183 517.289L410.065 517.965L416.142 501.021L414.26 500.346ZM408.183 517.289L406.3 516.614C402.198 528.051 389.601 533.997 378.164 529.895L377.489 531.778L376.814 533.66C390.33 538.508 405.217 531.481 410.065 517.965L408.183 517.289ZM377.489 531.778L378.164 529.895L281.978 495.396L281.303 497.279L280.628 499.161L376.814 533.66L377.489 531.778ZM281.303 497.279L281.978 495.396C270.541 491.294 264.595 478.696 268.697 467.26L266.814 466.584L264.932 465.909C260.084 479.425 267.111 494.313 280.628 499.161L281.303 497.279ZM266.814 466.584L268.697 467.26L274.774 450.317L272.892 449.642L271.009 448.967L264.932 465.909L266.814 466.584ZM565 463.961V465.961C577.15 465.961 587 475.811 587 487.961L589 487.961L591 487.961C591 473.602 579.359 461.961 565 461.961V463.961ZM589 487.961H587V505.961H589H591V487.961H589ZM589 505.961H587C587 518.112 577.15 527.961 565 527.961V529.961V531.961C579.359 531.961 591 520.321 591 505.961H589ZM565 529.961V527.961H523V529.961V531.961H565V529.961ZM523 529.961V527.961C510.85 527.961 501 518.112 501 505.961H499H497C497 520.321 508.641 531.961 523 531.961V529.961ZM499 505.961H501V487.961H499H497V505.961H499ZM499 487.961L501 487.961C501 475.811 510.85 465.961 523 465.961V463.961V461.961C508.641 461.961 497 473.602 497 487.961L499 487.961ZM523 463.961V465.961H565V463.961V461.961H523V463.961ZM565 375.961V377.961C577.15 377.961 587 387.811 587 399.961L589 399.961L591 399.961C591 385.602 579.359 373.961 565 373.961V375.961ZM589 399.961H587V417.961H589H591V399.961H589ZM589 417.961H587C587 430.112 577.15 439.961 565 439.961V441.961V443.961C579.359 443.961 591 432.321 591 417.961H589ZM565 441.961V439.961H362V441.961V443.961H565V441.961ZM362 441.961V439.961C349.85 439.961 340 430.112 340 417.961H338H336C336 432.321 347.641 443.961 362 443.961V441.961ZM338 417.961H340V399.961H338H336V417.961H338ZM338 399.961L340 399.961C340 387.811 349.85 377.961 362 377.961V375.961V373.961C347.641 373.961 336 385.602 336 399.961L338 399.961ZM362 375.961V377.961H565V375.961V373.961H362V375.961ZM212 287.961V289.961C224.15 289.961 234 299.811 234 311.961L236 311.961L238 311.961C238 297.602 226.359 285.961 212 285.961V287.961ZM236 311.961H234V329.961H236H238V311.961H236ZM236 329.961H234C234 342.112 224.15 351.961 212 351.961V353.961V355.961C226.359 355.961 238 344.321 238 329.961H236ZM212 353.961V351.961H24V353.961V355.961H212V353.961ZM24 353.961V351.961C11.8497 351.961 2 342.112 2 329.961H0H-2C-2 344.321 9.6406 355.961 24 355.961V353.961ZM0 329.961H2V311.961H0H-2V329.961H0ZM0 311.961L2 311.961C2.00018 299.811 11.8499 289.961 24 289.961V287.961V285.961C9.64069 285.961 -1.99979 297.602 -2 311.961L0 311.961ZM24 287.961V289.961H212V287.961V285.961H24V287.961ZM657 287.961V289.961C669.15 289.961 679 299.811 679 311.961L681 311.961L683 311.961C683 297.602 671.359 285.961 657 285.961V287.961ZM681 311.961H679V329.961H681H683V311.961H681ZM681 329.961H679C679 342.112 669.15 351.961 657 351.961V353.961V355.961C671.359 355.961 683 344.321 683 329.961H681ZM657 353.961V351.961H455V353.961V355.961H657V353.961ZM455 353.961V351.961C442.85 351.961 433 342.112 433 329.961H431H429C429 344.321 440.641 355.961 455 355.961V353.961ZM431 329.961H433V311.961H431H429V329.961H431ZM431 311.961L433 311.961C433 299.811 442.85 289.961 455 289.961V287.961V285.961C440.641 285.961 429 297.602 429 311.961L431 311.961ZM455 287.961V289.961H657V287.961V285.961H455V287.961ZM294 199.961V201.961C306.15 201.961 316 211.811 316 223.961L318 223.961L320 223.961C320 209.602 308.359 197.961 294 197.961V199.961ZM318 223.961H316V241.961H318H320V223.961H318ZM318 241.961H316C316 254.112 306.15 263.961 294 263.961V265.961V267.961C308.359 267.961 320 256.321 320 241.961H318ZM294 265.961V263.961H134V265.961V267.961H294V265.961ZM134 265.961V263.961C121.85 263.961 112 254.112 112 241.961H110H108C108 256.321 119.641 267.961 134 267.961V265.961ZM110 241.961H112V223.961H110H108V241.961H110ZM110 223.961L112 223.961C112 211.811 121.85 201.961 134 201.961V199.961V197.961C119.641 197.961 108 209.602 108 223.961L110 223.961ZM134 199.961V201.961H294V199.961V197.961H134V199.961ZM565 199.961V201.961C577.15 201.961 587 211.811 587 223.961L589 223.961L591 223.961C591 209.602 579.359 197.961 565 197.961V199.961ZM589 223.961H587V241.961H589H591V223.961H589ZM589 241.961H587C587 254.112 577.15 263.961 565 263.961V265.961V267.961C579.359 267.961 591 256.321 591 241.961H589ZM565 265.961V263.961H362V265.961V267.961H565V265.961ZM362 265.961V263.961C349.85 263.961 340 254.112 340 241.961H338H336C336 256.321 347.641 267.961 362 267.961V265.961ZM338 241.961H340V223.961H338H336V241.961H338ZM338 223.961L340 223.961C340 211.811 349.85 201.961 362 201.961V199.961V197.961C347.641 197.961 336 209.602 336 223.961L338 223.961ZM362 199.961V201.961H565V199.961V197.961H362V199.961ZM877 199.961V201.961C889.15 201.961 899 211.811 899 223.961L901 223.961L903 223.961C903 209.602 891.359 197.961 877 197.961V199.961ZM901 223.961H899V241.961H901H903V223.961H901ZM901 241.961H899C899 254.112 889.15 263.961 877 263.961V265.961V267.961C891.359 267.961 903 256.321 903 241.961H901ZM877 265.961V263.961H633V265.961V267.961H877V265.961ZM633 265.961V263.961C620.85 263.961 611 254.112 611 241.961H609H607C607 256.321 618.641 267.961 633 267.961V265.961ZM609 241.961H611V223.961H609H607V241.961H609ZM609 223.961L611 223.961C611 211.811 620.85 201.961 633 201.961V199.961V197.961C618.641 197.961 607 209.602 607 223.961L609 223.961ZM633 199.961V201.961H877V199.961V197.961H633V199.961ZM843.159 95.3431L845.024 96.065C849.41 84.7342 862.151 79.1041 873.482 83.4895L874.204 81.6244L874.926 79.7592C861.535 74.5764 846.477 81.2301 841.294 94.6212L843.159 95.3431ZM874.204 81.6244L873.482 83.4895L1013.17 137.552L1013.89 135.687L1014.61 133.822L874.926 79.7592L874.204 81.6244ZM1013.89 135.687L1013.17 137.552C1024.5 141.938 1030.13 154.679 1025.75 166.01L1027.61 166.732L1029.48 167.454C1034.66 154.062 1028 139.005 1014.61 133.822L1013.89 135.687ZM1027.61 166.732L1025.75 166.01L1019.25 182.796L1021.11 183.518L1022.98 184.24L1029.48 167.454L1027.61 166.732ZM1021.11 183.518L1019.25 182.796C1014.86 194.127 1002.12 199.758 990.79 195.372L990.068 197.238L989.346 199.103C1002.74 204.286 1017.8 197.631 1022.98 184.24L1021.11 183.518ZM990.068 197.238L990.79 195.372L851.104 141.31L850.382 143.175L849.66 145.04L989.346 199.103L990.068 197.238ZM850.382 143.175L851.104 141.31C839.773 136.924 834.142 124.183 838.527 112.852L836.662 112.13L834.797 111.408C829.614 124.8 836.269 139.857 849.66 145.04L850.382 143.175ZM836.662 112.13L838.527 112.852L845.024 96.065L843.159 95.3431L841.294 94.6212L834.797 111.408L836.662 112.13ZM232 111.961V113.961C244.15 113.961 254 123.811 254 135.961L256 135.961L258 135.961C258 121.602 246.359 109.961 232 109.961V111.961ZM256 135.961H254V153.961H256H258V135.961H256ZM256 153.961H254C254 166.112 244.15 175.961 232 175.961V177.961V179.961C246.359 179.961 258 168.321 258 153.961H256ZM232 177.961V175.961H44V177.961V179.961H232V177.961ZM44 177.961V175.961C31.8497 175.961 22 166.112 22 153.961H20H18C18 168.321 29.6406 179.961 44 179.961V177.961ZM20 153.961H22V135.961H20H18V153.961H20ZM20 135.961L22 135.961C22.0002 123.811 31.8499 113.961 44 113.961V111.961V109.961C29.6407 109.961 18.0002 121.602 18 135.961L20 135.961ZM44 111.961V113.961H232V111.961V109.961H44V111.961ZM457 111.961V113.961C469.15 113.961 479 123.811 479 135.961L481 135.961L483 135.961C483 121.602 471.359 109.961 457 109.961V111.961ZM481 135.961H479V153.961H481H483V135.961H481ZM481 153.961H479C479 166.112 469.15 175.961 457 175.961V177.961V179.961C471.359 179.961 483 168.321 483 153.961H481ZM457 177.961V175.961H300V177.961V179.961H457V177.961ZM300 177.961V175.961C287.85 175.961 278 166.112 278 153.961H276H274C274 168.321 285.641 179.961 300 179.961V177.961ZM276 153.961H278V135.961H276H274V153.961H276ZM276 135.961L278 135.961C278 123.811 287.85 113.961 300 113.961V111.961V109.961C285.641 109.961 274 121.602 274 135.961L276 135.961ZM300 111.961V113.961H457V111.961V109.961H300V111.961ZM692 111.961V113.961C704.15 113.961 714 123.811 714 135.961L716 135.961L718 135.961C718 121.602 706.359 109.961 692 109.961V111.961ZM716 135.961H714V153.961H716H718V135.961H716ZM716 153.961H714C714 166.112 704.15 175.961 692 175.961V177.961V179.961C706.359 179.961 718 168.321 718 153.961H716ZM692 177.961V175.961H525V177.961V179.961H692V177.961ZM525 177.961V175.961C512.85 175.961 503 166.112 503 153.961H501H499C499 168.321 510.641 179.961 525 179.961V177.961ZM501 153.961H503V135.961H501H499V153.961H501ZM501 135.961L503 135.961C503 123.811 512.85 113.961 525 113.961V111.961V109.961C510.641 109.961 499 121.602 499 135.961L501 135.961ZM525 111.961V113.961H692V111.961V109.961H525V111.961Z" fill="#02F3FF" mask="url(#path-10-inside-1_20_203)"/>
<defs>
<linearGradient id="paint0_linear_20_203" x1="-1.63539e-05" y1="79.9613" x2="1062.09" y2="746.56" gradientUnits="userSpaceOnUse">
<stop offset="0" stop-color="#02F3FF"/>
<stop offset="1" stop-color="#020B1F"/>
</linearGradient>
</defs>
</svg>
